<svg width="8" height="12" viewBox="0 0 8 12" fill="none" xmlns="http://www.w3.org/2000/svg">
<path fill-rule="evenodd" clip-rule="evenodd" d="M7.00168 0.66621L7.53635 1.20523C7.71212 1.39211 7.80005 1.61022 7.80005 1.8593C7.80005 2.11341 7.71212 2.32906 7.53635 2.50641L4.07191 6.0001L7.53626 9.49379C7.71203 9.67114 7.79996 9.88678 7.79996 10.1408C7.79996 10.39 7.71203 10.6081 7.53626 10.795L7.00159 11.3269C6.8211 11.509 6.60482 11.6001 6.35293 11.6001C6.09631 11.6001 5.88248 11.509 5.71143 11.3269L1.07093 6.64711C0.890341 6.47453 0.800049 6.25897 0.800049 6.0001C0.800049 5.74607 0.890341 5.52805 1.07093 5.34602L5.71143 0.66621C5.88729 0.488861 6.10112 0.400098 6.35293 0.400098C6.60009 0.400098 6.81628 0.488861 7.00168 0.66621Z" fill="white"/>
</svg>
