<svg width="8" height="12" viewBox="0 0 8 12" fill="none" xmlns="http://www.w3.org/2000/svg">
<path fill-rule="evenodd" clip-rule="evenodd" d="M0.998319 0.66621L0.463653 1.20523C0.287881 1.39211 0.199951 1.61022 0.199951 1.8593C0.199951 2.11341 0.287881 2.32906 0.463653 2.50641L3.92809 6.0001L0.463741 9.49379C0.287968 9.67114 0.200039 9.88678 0.200039 10.1408C0.200039 10.39 0.287968 10.6081 0.463741 10.795L0.998406 11.3269C1.1789 11.509 1.39518 11.6001 1.64707 11.6001C1.90369 11.6001 2.11752 11.509 2.28857 11.3269L6.92907 6.64711C7.10966 6.47453 7.19995 6.25897 7.19995 6.0001C7.19995 5.74607 7.10966 5.52805 6.92907 5.34602L2.28857 0.66621C2.11271 0.488861 1.89888 0.400098 1.64707 0.400098C1.39991 0.400098 1.18372 0.488861 0.998319 0.66621Z" fill="white"/>
</svg>
